HIERARCHY
ROOT Hips
{
	OFFSET	0	0	0
	CHANNELS 6  Xposition Yposition Zposition Xrotation Yrotation Zrotation
	JOINT Spine
	{
		OFFSET	0	0.0328084	0
		CHANNELS 6  Xrotation Yrotation Zrotation Xposition Yposition Zposition
		JOINT Spine1
		{
			OFFSET	0	0.366927	-0.0655227
			CHANNELS 6  Xrotation Yrotation Zrotation Xposition Yposition Zposition
			JOINT Spine2
			{
				OFFSET	0	0.278144	0.0298128
				CHANNELS 6  Xrotation Yrotation Zrotation Xposition Yposition Zposition
				JOINT Spine3
				{
					OFFSET	0	0.332855	0.0989393
					CHANNELS 6  Xrotation Yrotation Zrotation Xposition Yposition Zposition
					JOINT Spine4
					{
						OFFSET	0	0.492731	-0.0504525
						CHANNELS 3  Xrotation Yrotation Zrotation
						JOINT Neck
						{
							OFFSET	0	0.235227	-0.16479
							CHANNELS 3  Xrotation Yrotation Zrotation
							JOINT Head
							{
								OFFSET	0	0.282403	-0.0845243
								CHANNELS 3  Xrotation Yrotation Zrotation
								End Site
								{
									OFFSET	0	0.589049	-0.0285024
								}
							}
						}
					}
					JOINT LeftShoulder
					{
						OFFSET	-0.141529	0.598878	-0.282403
						CHANNELS 3  Xrotation Yrotation Zrotation
						JOINT LeftArm
						{
							OFFSET	-0.388517	-0.0845243	0.108441
							CHANNELS 3  Xrotation Yrotation Zrotation
							JOINT LeftForeArm
							{
								OFFSET	-0.963635	-0.043982	0.0687832
								CHANNELS 3  Xrotation Yrotation Zrotation
								JOINT LeftHand
								{
									OFFSET	-0.87115	-0.0602013	0.0621817
									CHANNELS 3  Xrotation Yrotation Zrotation
									End Site
									{
										OFFSET	-0.317926	-0.0219706	0.0226918
									}
								}
							}
						}
					}
					JOINT RightShoulder
					{
						OFFSET	0.141529	0.598878	-0.282403
						CHANNELS 3  Xrotation Yrotation Zrotation
						JOINT RightArm
						{
							OFFSET	0.388517	-0.0845243	0.108441
							CHANNELS 3  Xrotation Yrotation Zrotation
							JOINT RightForeArm
							{
								OFFSET	0.963635	-0.043982	0.0687832
								CHANNELS 3  Xrotation Yrotation Zrotation
								JOINT RightHand
								{
									OFFSET	0.87115	-0.0602013	0.0621817
									CHANNELS 3  Xrotation Yrotation Zrotation
									End Site
									{
										OFFSET	0.317926	-0.0219706	0.0226918
									}
								}
							}
						}
					}
				}
			}
		}
	}
	JOINT LeftUpLeg
	{
		OFFSET	-0.371285	-0.273019	-0.0645399
		CHANNELS 3  Xrotation Yrotation Zrotation
		JOINT LeftLeg
		{
			OFFSET	0.00518453	-1.25293	-0.019586
			CHANNELS 3  Xrotation Yrotation Zrotation
			JOINT LeftFoot
			{
				OFFSET	-0.0695905	-1.28277	0.110319
				CHANNELS 3  Xrotation Yrotation Zrotation
				JOINT LeftToeBase
				{
					OFFSET	0	-0.112817	-0.299642
					CHANNELS 3  Xrotation Yrotation Zrotation
					End Site
					{
						OFFSET	0	-0.0451268	-0.180507
					}
				}
			}
		}
	}
	JOINT RightUpLeg
	{
		OFFSET	0.371285	-0.273019	-0.0645399
		CHANNELS 3  Xrotation Yrotation Zrotation
		JOINT RightLeg
		{
			OFFSET	-0.00518453	-1.25293	-0.019586
			CHANNELS 3  Xrotation Yrotation Zrotation
			JOINT RightFoot
			{
				OFFSET	0.0695905	-1.28277	0.110319
				CHANNELS 3  Xrotation Yrotation Zrotation
				JOINT RightToeBase
				{
					OFFSET	0	-0.112817	-0.299642
					CHANNELS 3  Xrotation Yrotation Zrotation
					End Site
					{
						OFFSET	0	-0.0451268	-0.180507
					}
				}
			}
		}
	}
}
MOTION
Frames: 10
Frame Time: 0.02
 -1.53084 3.12659 3.53011 13.4667 -144.833 -14.4905 2.6351 -0.00657612 3.08367 0 -0.000931474 0 1.58203 -0.0131184 5.13944 0 -0.000931474 0 2.66705 -0.0393551 5.13944 0 -0.000931474 0 175.698 -179.993 -176.916 0 -0.000931474 0 172.949 179.874 178.98 169.077 164.543 -168.316 176.541 159.493 -174.692 1.35691 12.1649 2.27285 166.479 -166.975 -124.556 78.7516 -5.1029 25.5611 -0 13.4639 6.10914 10.365 10.7387 -22.2121 172.836 155.509 153.731 143.477 159.184 -165.039 -0 -14.498 26.322 52.0123 -9.34493 -18.0403 83.8015 -173.001 -180 177.669 179.986 179.508 150.125 180 -180 28.0594 -7.89096 15.7263 164.774 178.05 180 8.42135 -0.0716068 -9.50786 165.363 180 -180
 -1.55768 3.12514 3.51982 14.3495 -140.826 -13.316 2.5921 -0.0260559 3.06251 0 -0.00116372 0 1.55907 -0.0519793 5.10418 0 -0.00116372 0 2.53875 -0.155938 5.1042 0 -0.00116372 0 176.054 -179.974 -176.938 0 -0.00116372 0 173.726 179.888 178.985 170.25 164.205 -168.847 176.891 159.089 -174.836 1.0956 10.6576 1.87407 167.162 -165.656 -122.834 78.7779 -5.16957 25.9849 -0 14.1688 6.47336 10.3143 9.34828 -21.9414 173.081 156.254 151.519 141.974 158.133 -163.95 -0 -13.7826 27.6662 51.9397 -8.46586 -16.8593 83.622 -174.844 -180 176.964 -179.967 179.197 149.925 180 -180 28.7774 -7.62566 15.8167 165.216 179.818 180 8.28193 -0.119041 -8.75705 165.38 180 -180
 -1.58704 3.12788 3.51799 15.2956 -136.822 -11.7274 2.5518 -0.0312574 2.9799 0 -0.00113011 0 1.53552 -0.0623644 4.9665 0 -0.00113011 0 2.44351 -0.187093 4.96652 0 -0.00113011 0 176.29 -179.969 -177.02 0 -0.00113011 0 174.231 179.9 179.012 171.017 163.908 -169.128 177.119 158.723 -174.903 0.615552 9.1058 1.07461 167.625 -164.394 -121.291 78.9193 -5.36706 26.8198 -0 14.8235 6.81528 10.2121 8.56407 -21.6178 172.723 156.813 149.063 140.595 157.264 -162.7 -0 -12.8139 28.5402 52.6806 -6.68497 -15.1803 83.3363 -176.529 -180 176.348 -179.948 179.017 149.777 180 -180 28.9919 -7.44097 15.4765 166.241 -178.413 -180 8.38147 -0.0925338 -7.99432 165.452 180 -180
 -1.61805 3.12976 3.51056 16.8738 -132.403 -9.85738 2.57262 -0.0304943 2.90693 0 -0.000980131 0 1.5478 -0.0608489 4.84488 0 -0.000980131 0 2.41111 -0.182547 4.8449 0 -0.000980131 0 176.414 -179.969 -177.093 0 -0.000980131 0 174.544 179.908 179.035 171.462 163.578 -169.026 177.255 158.431 -174.864 0.077257 7.47596 0.137643 168.607 -163.041 -119.882 79.2282 -5.771 27.9836 -0 15.3553 7.18801 9.94245 8.0242 -20.9484 171.819 157.629 147 139.497 156.818 -161.801 -0 -11.8662 28.9396 52.1191 -5.06728 -14.4536 83.0433 -177.991 -180 175.499 -179.967 178.919 149.631 180 -180 29.6536 -6.945 15.5245 167.28 -176.795 -180 8.78421 -0.0583975 -7.25339 165.585 180 -180
 -1.64559 3.12549 3.50264 18.1202 -128.806 -8.19024 2.61335 -0.0117402 2.86653 0 -0.00076751 0 1.56962 -0.023428 4.77755 0 -0.00076751 0 2.41017 -0.0702841 4.77756 0 -0.00076751 0 176.446 -179.988 -177.133 0 -0.00076751 0 174.667 179.911 179.049 171.602 163.231 -168.631 177.304 158.186 -174.74 179.321 173.662 178.774 168.957 -162.102 -118.738 79.3788 -6.03334 28.5194 -0 15.6932 7.25791 9.60107 8.11643 -20.2002 170.627 158.43 145.346 138.682 156.845 -161.278 -0 -10.9054 28.7224 51.0826 -4.09751 -13.2888 82.169 -179.33 -180 174.45 -179.967 178.84 149.49 180 -180 30.0812 -6.53674 15.5789 167.96 -175.175 -180 9.41682 -0.0612013 -6.52805 165.753 180 -180
 -1.65539 3.12521 3.49302 17.9669 -127.29 -8.2683 2.50281 -0.00942278 2.91482 0 -0.000460856 0 1.503 -0.0188022 4.85803 0 -0.000460856 0 2.36906 -0.0564065 4.85803 0 -0.000460856 0 176.411 -179.991 -177.085 0 -0.000460856 0 174.461 179.906 179.033 171.34 163.111 -168.501 177.214 157.916 -174.666 178.556 173.983 177.381 169 -161.256 -116.926 79.3784 -6.19921 29.045 -0 15.913 7.06848 9.45251 9.54977 -20.0303 169.426 158.386 143.358 137.832 156.744 -160.936 -0 -9.74682 28.0059 51.109 -6.63061 -12.2116 82.3805 179.384 180 173.918 -179.995 178.5 149.431 180 -180 29.8927 -6.23782 16.0009 168.321 -173.729 -180 10.1434 0.0170392 -5.93618 165.968 180 -180
 -1.68866 3.11296 3.49288 19.7031 -123.785 -5.96199 2.62868 -0.0049428 2.85958 0 -0.000226819 0 1.57788 -0.00986371 4.76597 0 -0.000226819 0 2.39747 -0.0295911 4.76597 0 -0.000226819 0 176.495 -179.995 -177.14 0 -0.000226819 0 174.801 179.914 179.051 171.822 162.874 -168.712 177.353 157.573 -174.706 177.892 174.52 176.149 169.779 -160.882 -116.556 79.481 -6.53962 29.0134 -0 15.8669 6.72633 9.43363 11.2432 -20.1589 168.226 158.312 141.829 137.189 156.939 -160.66 -0 -8.48437 27.0066 50.3445 -7.67658 -10.3076 81.9261 178.174 180 173.589 179.986 178.256 149.388 180 -180 30.3299 -5.93986 15.6326 168.543 -172.203 180 10.7388 -0.0671201 -5.36514 166.191 180 -180
 -1.71696 3.11359 3.48974 22.0359 -120.33 -2.64485 2.77212 -0.011424 2.72916 0 0.000213294 0 1.66476 -0.022802 4.54859 0 0.000213294 0 2.44714 -0.068406 4.5486 0 0.000213294 0 176.556 -179.989 -177.271 0 0.000213294 0 175.104 179.922 179.094 172.242 162.628 -168.865 177.473 157.226 -174.728 177.309 175.049 175.052 170.554 -160.701 -116.141 79.2348 -6.35886 28.8241 -0 15.7557 6.26674 9.01677 12.6676 -19.3507 166.425 158.362 139.816 136.702 157.09 -160.555 -0 -7.18701 25.7992 48.8909 -7.47639 -8.25419 83.9413 177.593 180 173.088 -179.944 178.228 149.351 180 -180 30.5658 -5.86534 14.9139 168.55 -170.698 -180 11.4176 -0.128516 -4.86589 166.442 180 -180
 -1.72788 3.1125 3.48153 24.0805 -117.361 0.205031 2.94715 -0.00425612 2.62785 0 0.000767576 0 1.76882 -0.00849632 4.37975 0 0.000767576 0 2.51858 -0.025489 4.37975 0 0.000767576 0 176.576 -179.996 -177.372 0 0.000767576 0 175.351 179.929 179.127 172.566 162.413 -168.951 177.566 156.938 -174.735 177.042 175.606 174.526 172.051 -160.633 -115.825 79.0412 -6.2431 28.2991 -0 15.5845 5.79821 8.48294 14.6521 -18.3028 164.319 157.757 137.481 136.079 157.039 -160.06 -0 -5.43609 24.3022 46.5661 -6.8717 -7.35301 86.379 177.485 180 172.312 -179.946 178.343 149.242 180 -180 30.5646 -5.46908 14.7187 168.482 -169.516 -180 12.1625 -0.0569973 -4.45467 166.713 180 -180
 -1.73856 3.11528 3.46835 25.5553 -115.201 1.70647 3.14302 -0.00311324 2.59231 0 0.00139809 0 1.8862 -0.00621514 4.32052 0 0.00139809 0 2.67524 -0.0186454 4.32052 0 0.00139809 0 176.379 -179.997 -177.408 0 0.00139809 0 175.112 179.926 179.139 172.162 162.461 -168.847 177.436 156.882 -174.683 176.878 175.17 174.248 172.638 -161.176 -115.821 78.7603 -6.15133 27.1219 -0 15.3639 5.29067 7.83657 16.8873 -16.9878 162.62 156.576 135.367 135.282 156.621 -158.912 -0 -3.40737 22.7441 43.5278 -7.58858 -7.0326 89.0166 176.885 180 171.539 179.979 178.228 149.096 180 -180 30.8122 -5.22032 15.5855 168.442 -168.235 -180 13.1709 -0.0497969 -3.93051 167.028 180 -180
